<?xml version="1.0" standalone="no"?>
<!DOCTYPE svg PUBLIC "-//W3C//DTD SVG 20010904//EN"
 "http://www.w3.org/TR/2001/REC-SVG-20010904/DTD/svg10.dtd">
<svg version="1.0" xmlns="http://www.w3.org/2000/svg"
 width="269.000000pt" height="267.000000pt" viewBox="0 0 269.000000 267.000000"
 preserveAspectRatio="xMidYMid meet">
<metadata>
Created by potrace 1.15, written by Peter Selinger 2001-2017
</metadata>
<g transform="translate(0.000000,267.000000) scale(0.100000,-0.100000)"
fill="#000000" stroke="none">
<path d="M0 1335 l0 -1335 1345 0 1345 0 0 1335 0 1335 -1345 0 -1345 0 0
-1335z m1121 434 c57 -28 123 -109 144 -174 37 -119 -3 -251 -98 -327 -73 -57
-87 -61 -227 -67 l-125 -6 -6 -185 c-3 -102 -6 -186 -7 -187 -1 -2 -36 -3 -77
-3 l-75 0 2 278 3 277 188 5 189 5 34 37 c26 29 34 46 34 75 0 48 -33 102 -70
116 l-30 11 0 87 c0 47 3 88 6 91 7 8 71 -10 115 -33z m561 30 c18 -10 20 -17
14 -64 -11 -97 -15 -101 -95 -108 -89 -7 -145 -32 -206 -91 -27 -25 -49 -46
-50 -46 -1 0 -5 26 -8 58 -2 31 -13 74 -23 95 -24 50 -15 63 76 109 101 51
242 74 292 47z m396 -441 c17 -17 15 -109 -4 -182 -37 -145 -127 -259 -247
-317 -60 -28 -188 -56 -207 -44 -5 3 -10 43 -10 89 l0 83 53 7 c62 9 125 43
159 88 37 49 71 119 61 129 -4 4 -49 9 -98 11 l-90 3 -3 59 c-2 32 -1 65 2 72
7 19 366 20 384 2z"/>
</g>
</svg>
